<svg id="ba6169b0-3e54-48e9-bf47-bc7efb1a9eac" data-name="Layer 1" xmlns="http://www.w3.org/2000/svg" viewBox="0 0 384 319.4"><defs><style>.ae0a6aac-67bf-4404-b5fc-d2fc965d4fa9{fill:#9b9092;}.d4336194-5f8d-4ac7-8a00-967405250f97{fill:#a19d9f;}.\34 462fe22-7cb7-4933-a4a8-ceb4706ed092{fill:#5f5152;}.\30 d67a1f0-1b6c-4152-84d9-2faf40e697a2,.\39 f5ccc3c-714f-43d8-a891-540eeface4f4{fill:#3e6487;}.c4aa8376-9bf5-4887-a78d-e777e555c91e{fill:#efe8e9;}.b4a2a891-a240-4112-b82b-ba85fa3994e8{fill:#75b565;}.\35 ff0ac9d-eb13-48d2-a701-f2e1668ccd82{fill:#8ab280;}.\31 76bd403-4b77-4bae-979d-cb473650d834{fill:#6ab556;}.\31 c649ee0-6639-4ac9-a188-38ed5f4b8c86,.\33 1891ddb-5859-4251-ab29-49dcfb096e27{fill:#6fb659;}.\31 c649ee0-6639-4ac9-a188-38ed5f4b8c86{stroke:#6fb659;stroke-miterlimit:10;}.\30 d67a1f0-1b6c-4152-84d9-2faf40e697a2{font-size:10.92px;font-family:WintanceastreDEMO-Regular, Wintanceastre DEMO;}.b58a5731-4f79-4af6-83e0-189fcb4124e7{letter-spacing:-0.08em;}</style></defs><title>Vector</title><path class="ae0a6aac-67bf-4404-b5fc-d2fc965d4fa9" d="M184.72,250.25c0-5.14,4.05-7.9,7.12-10.91,7.93-7.78,16.22-15.19,24.47-22.63,7.3-6.59,11-14.19,7.84-24.18a39.24,39.24,0,0,1-1-6.33c-17.45-2-25.67-8.48-25.32-20.24a25.23,25.23,0,0,0,6.69,8.64,25.69,25.69,0,0,0,9.17,4.79c9.74,2.77,14.55-2.23,29.53-2.33,5.4,0,4,.62,9.62.62,5.16,0,25,0,30.4-10,2.08-3.85,1.75-8.7,1.44-8.93l-.38-.29c-1.47-.57-3.74-1.48-6.49-2.64a152.68,152.68,0,0,1-18.9-9.36,27.65,27.65,0,0,1-9.09-7.83c-6.66-9.71-15.13-16.48-26.74-19-3.52-.77-7-1.49-10.56-2.23.7-.49,2.05-1,2-1.45-.32-5.09,2.63-8.73,5.53-12.24a42.84,42.84,0,0,1,6.61-6A11,11,0,0,0,229.17,95,15.69,15.69,0,0,0,232,85.66a19.58,19.58,0,0,1-6.94,6.55,19.9,19.9,0,0,1-12.64,2.15,21.92,21.92,0,0,1-6.16-2,28.51,28.51,0,0,1-10.14-8c-6.12-7.56-7.25-16.76-8.06-26-.22-2.42,0-4.87-.8-7.72-1.81,3-3.62,6.06-5.4,9.11-.55.94-1,2-1.53,2.88-.69,1.12-1.29,1.67-1.83,1.62-.76-.07-1.24-1.29-1.44-1.81-6.22-16.6-7-26.29-7-26.29-.29-3.75-.56-8.78-.53-14.75a25.86,25.86,0,0,0-6.16,15.3,42.49,42.49,0,0,0-.28,8.7c2,25.93,14.77,40.38,14.77,40.38a226.86,226.86,0,0,0,19.87,19.88c7.66,6.75,12.3,9.94,12.15,10.16-.27.37-15.84-7.38-29.13-22.47-5.24-6-15-17.34-18.78-34.9-1.32-6-4.27-20.45,2.6-34,3.09-6.11,8-11.74,9.21-11.12,1,.51-.64,4.09-1.3,10.68-.82,8.13.52,14.16,2.47,23,1,4.6,2.62,11.69,4.45,11.63,1,0,1.18-2,3.51-5.82,1.44-2.36,4.07-6.6,5.67-6.23,2,.47.53,7.75,2.9,19,.87,4.14,1.75,8.18,4.39,12.84,1.9,3.36,5.21,9,12,12A21.85,21.85,0,0,0,216.53,92a69.44,69.44,0,0,1-6.16-9.58c-9.48-17.82-8.42-34.75-8-40.89a51,51,0,0,1,3.25-15.41,32.76,32.76,0,0,1,7.79-12.41c4.34-4.16,10.65-7.51,12-6.15,1.09,1.13-2.3,4.46-5.93,12.74a74.84,74.84,0,0,0-5.81,22.37,77.64,77.64,0,0,0-.44,10.09,32.91,32.91,0,0,1,7.23-4.35c5.94-2.61,13.25-3.69,13.91-2.11.55,1.29-4.08,2.6-7.43,7.82-3.6,5.61-3.17,11.82-2.74,18.22.45,6.78,2.25,13.72,3.95,13.73.35,0,.93-.58,2.09-1.76,1.83-1.86,2.09-2.61,2.52-2.52.89.18,1.38,3.67,1,6.81-.24,1.88-.69,2.87-.11,4.06a4.38,4.38,0,0,0,2.58,2c6.8,2.6,15.54,0,15.54,0,12.89-3.77,18.8-9,20.09-7.57s-2.21,7.12-6.15,10.76c-5.66,5.24-12.54,6.91-23,9.44-5.56,1.36-9.61,1.92-14.93,5a36.79,36.79,0,0,0-6.16,4.57c3.59,1,6.44,1.78,9.27,2.64a34.57,34.57,0,0,1,19.81,14.79c5.35,8.5,13.08,13.58,22.08,17.09A125,125,0,0,0,286,155.66c2.5.67,3.78,2,3.63,4.5-.39,6.68-2.52,12.49-9.07,15.49-9.75,4.47-19.9,6.89-30.77,6-6.08-.48-12.23-.6-18.1,1.74-3.41,1.36-3.52,1.71-1.54,4.84,4.85,7.68,12,12.51,20.25,15.63,6.58,2.49,13.34,4.51,20,6.72s12.63,6.16,18.31,10.31a69.67,69.67,0,0,1,8.46,7.24,73,73,0,0,1,13.62,18.91c.81,1.62,1,3.07.55,3.4s-1.91-.41-3.29-2a69,69,0,0,0-11.05-16.18c-2.64-2.88-8-7.34-15.45-12.51-3.15-2.17-7-3.46-10.73-4.6-7.11-2.19-14.34-4-21.52-5.92l-.87-.25c.08.28.17.56.26.84A91.07,91.07,0,0,1,255.07,225c.57,1.81,1.06,3.57,1.49,5.28a13.54,13.54,0,0,1-2.35-3c-3.69-9.12-9.12-16.84-17.16-22.68-2.94-2.13-5.52-4.76-8.17-7.08-.13.73-.43,2.22-.64,3.72-1.38,9.9-8.33,16-12.61,20.32C203.06,234.21,191.7,244.26,184.72,250.25Zm84.55-160.1c-1.5.84-3.6,1.95-6.18,3.09a48.39,48.39,0,0,1-11.53,3.94c-6.16,1.12-10.94,2-15.11-.24-1.72-.92-2.8-1.46-4.22-1.07-2.09.58-2.46,2.92-6.54,6-.56.42-.46.29-1,.73a27.15,27.15,0,0,0-7,8.66c-.79,1.57-1.82,3.65-1,4.63a2.45,2.45,0,0,0,2.15.46c8.76-6.93,16.37-9.51,21.76-10.56,3-.59,14.13-2.61,20.1-6.54a30.31,30.31,0,0,0,8.62-9.07Zm-48.08-79.4c-5.08,2.78-9.6,8.46-12.13,14.9-5.15,13.14-4.51,24.87-3,35.21A66.35,66.35,0,0,0,211.48,79c2.27,4.91,5.6,12.4,9.72,12.23,1.86-.08,4.33-1.73,4.66-3.66a4.52,4.52,0,0,0-.43-2.31c-.46-1.37-1.13-3.21-2.09-5.38a38,38,0,0,1-1.22-18.44,25.61,25.61,0,0,1,2.55-7.13,24.28,24.28,0,0,1,5.59-6.82A35,35,0,0,0,211,58.39a84.29,84.29,0,0,1,10.2-47.64Z" transform="translate(-12.73 -7.28)"/><path class="ae0a6aac-67bf-4404-b5fc-d2fc965d4fa9" d="M130.64,108.35c14.1,16.2,15.66,18.64,20.42,21.79a34.42,34.42,0,0,0,21.54,6c3.32-.18,7-1.06,10.6,1.67-13.78,3.9-19.73,14.56-24.82,26a65.19,65.19,0,0,0-5.68,27.64c.08,6.77.56,13.53.82,20.3a23.17,23.17,0,0,1-.53,6.38l-2.83-5a68.35,68.35,0,0,0-12.91,32.4c-1.92,3.45-3.23,5.06-3.95,4.83-.49-.16-.7-1.18-.63-3.07.49-10.09,3.11-16.77,5.49-21.07.54-1,3-5.46,6.19-11.56A36.16,36.16,0,0,0,148,205a19.17,19.17,0,0,0,.54-6c-2.62-20.17,3.85-37.63,15.78-53.48,1.34-1.79,2.8-3.5,4.58-5.71-3.07-.37-5.45-.54-7.78-1-8.32-1.49-15.07-5.86-20.71-12-6.35-6.86-12.27-14.07-16.88-22.27-1-1.79-1.06-2.65,1.39-2.64,38.47.16,57.15,12.14,57.15,12.14,1.33.74,2.41,1.38,3.08,1.77l-2.28.21c-1.54-.51-3.1-.93-4.6-1.52a123,123,0,0,0-46.6-8.63c-1.54-.06-2.76-.08-3.21-.08Z" transform="translate(-12.73 -7.28)"/><path class="d4336194-5f8d-4ac7-8a00-967405250f97" d="M135.28,213.58c-.08.38-5.92.72-12.52-.54-2.28-.44-4.63-1.07-5.4,0s.39,3.29.57,3.62c2.28,4.18,6.29,3.44,10,3.2a51.65,51.65,0,0,1,5.68-.33c-6.64,4.07-16,2.48-19.89-3.18-.61-.88-2.14-2.59-1.61-4,.28-.78,1-.94.93-1.47,0-1-2.68-1.54-5.16-2.39a32.35,32.35,0,0,1-7.35-3.78c-1.3-.94-6.16-4.42-5.49-7.93a4.38,4.38,0,0,1,1.27-2.23c-5.2-2.88-7-8.39-10-13a19.24,19.24,0,0,1-3-5.81c-.52-1.73-1.22-4-.06-5.17,1-.95,2.67-.65,3.27-.52-1-2.79-2.26-5.45-2.74-8.26A62.25,62.25,0,0,1,82.75,149c.12-3.42,1.71-4.21,5-3.1q24.8,8.47,49.52,17.15c2.21.77,4.3,1.86,6.44,2.79l3.58,2.18c-3.56-.94-6.36-1.74-8-2.2-11-3.17-35-11.09-40.63-12.89a11,11,0,0,0-1.56-.45c-5.51-.79-7.95,1.23-7,6.61a47.38,47.38,0,0,0,3.75,10.67c.44,1,2,1.7,3.23,2.11,10.66,3.6,21.36,7,32,10.69,3.61,1.23,7.08,2.87,10.62,4.32l3.51,2.11c-3.72-.94-6.62-1.81-8.32-2.34-4.27-1.34-14.66-4.39-35.48-10.4-3.46-1-4.91.1-4.6,3.35.54,5.57,3.75,9.91,7.47,13.59,1.44,1.43,4.57,1.19,7,1.61,8.33,1.44,16.7,2.74,24.33,6.89-6-1.08-12-2.24-18.07-3.2-3.33-.54-6.72-.82-10.09-1.06a2.46,2.46,0,0,0-2,.88c-.23.44.34,1.43.75,2,3.78,5.7,15.36,9.12,15.36,9.12C132.23,212.33,135.33,213.3,135.28,213.58Z" transform="translate(-12.73 -7.28)"/><path class="d4336194-5f8d-4ac7-8a00-967405250f97" d="M276,200.58c7.83-1.93,15.68-3.82,23.5-5.82,2.54-.64,5.68-.86,7.4-2.49,3.64-3.43,6.38-7.75,6.75-13,.2-2.81-1.2-3.88-4.18-3.12q-8.64,2.22-17.21,4.73c-1.52.45-2.61.81-4.82,1.45-5.57,1.62-10,2.74-13.07,3.5-1.72.43-4,1-6.81,1.65l2.18-1c2.16-1,6-2.69,10.78-4.49,17.95-6.69,26.11-5.83,33.05-13.33,0,0,5.08-5.48,5-12a4.17,4.17,0,0,0-1-3,3.59,3.59,0,0,0-2.19-.91,22.15,22.15,0,0,0-5.2,0s-2.66.59-11.15,2a62.88,62.88,0,0,1-7.36.77c2.29-.91,4.08-1.64,5.05-2,0,0,7.06-2.89,24.53-7.84a3.14,3.14,0,0,1,4.51,3c.87,6.24-.77,12-2.84,17.8-.36,1-.88,1.94-1.29,2.83a6.09,6.09,0,0,1,2.65,2.35,6.27,6.27,0,0,1,.8,3.38c-.06,4.72-6.05,10.85-8.86,15.51-.73,1.22-2.16,2-3.09,3.12-.37.45-.29,1.3-.36,2-.12,1.17.19,2.58-.35,3.49a19.88,19.88,0,0,1-13,9.53c-2,.46-3.41,1.17-3.15,3.75.18,1.84-1.17,2.34-2.74,1.45-1.95-1.1-3.82-2.33-6.25-3.84a58.56,58.56,0,0,1,5.94-2.2,15.31,15.31,0,0,0,4-1.51c5.15-2.22,9.42-7.6,8.5-9.07-.36-.58-1.34-.22-7,.66-5.85.91-5.11.58-10.77,1.52-3.82.62-4.29.68-8.38,1.46-1.51.29-4,.73-7.1,1.08Z" transform="translate(-12.73 -7.28)"/><path class="4462fe22-7cb7-4933-a4a8-ceb4706ed092" d="M328.42,172.74q18.76-3.42,37.58-6.54,15.35-2.55,30.73-4.9a80.28,80.28,0,0,1-73.47,32.19c2-.16,4.78-.45,8.13-1a124.25,124.25,0,0,0,17.4-4.25c6.68-2,8-2.65,9-3.39a20.54,20.54,0,0,0,6.83-8.52c1.86-4.05.64-6.2-3.75-6.06a178.19,178.19,0,0,0-18.21,1.53c-1.64.26-4.25.66-7.51,1.08Z" transform="translate(-12.73 -7.28)"/><path class="4462fe22-7cb7-4933-a4a8-ceb4706ed092" d="M80.59,173.4q-15.24-1.71-30.5-3.13l-4-.37c-4-.84-5,.12-5.26.53-1.68,2.31,3.51,8.5,4.39,9.55a23.74,23.74,0,0,0,7.26,6c.92.49,2.71,1.38,9.44,2.75,5.66,1.15,8.89,1.47,15,2.46,3.9.63,7,1.22,9,1.6a196.46,196.46,0,0,1-24.85-1.63A78.52,78.52,0,0,1,48,188.31c-1.59-.49-3.19-1.07-4.9-1.76A56.05,56.05,0,0,1,29,177.91a82.34,82.34,0,0,1-16.23-16.76L76.14,172Z" transform="translate(-12.73 -7.28)"/><path class="9f5ccc3c-714f-43d8-a891-540eeface4f4" d="M335,285.26q-5.51-.06-11.21.09A292.94,292.94,0,0,0,265.29,293c-8.12,1.82-14.06,3.32-18.08,4.39-1.92.52-6.77,1.83-13.48,3.46-1.82.45-2.73.67-4,1a303.21,303.21,0,0,1-33.56,5.61,184.12,184.12,0,0,1-19.46,1.6c-3,.06-6.82.09-11.33,0a321.61,321.61,0,0,1-39.46-3.08,222.91,222.91,0,0,0,28.19,1.75c27.38.15,51.21-4.44,69.82-8.12,4.15-.82,7.52-1.54,9.63-2,8.75-2.27,17.49-4.6,26.26-6.8,1.92-.48,3.72-.93,6.05-1.48,6.3-1.5,16.29-3.87,26.18-5.25a164.47,164.47,0,0,1,35.39-1c10.55.83,19.57,2.6,19.54,2.85S342.29,285.44,335,285.26Z" transform="translate(-12.73 -7.28)"/><path class="4462fe22-7cb7-4933-a4a8-ceb4706ed092" d="M56.87,144.85c-6.24-1.33-8.47-1.91-8.47-1.91-4-1-6.77-1.94-8.64-2.45-2.2-.59-2.88-.44-3.31,0-1.46,1.39.82,6.31,2.86,9.23a21.7,21.7,0,0,0,6.12,5.82,38.17,38.17,0,0,0,6.43,3.16c2.29,1,4,1.58,4.64,1.79a97.77,97.77,0,0,1,12.78,5.48l-9.65-1.13c-.7-.15-1.88-.4-3.32-.77-4.73-1.22-21.8-6-34.33-21.66a53.64,53.64,0,0,1-7.31-12.13L78.84,147.7A148,148,0,0,1,56.87,144.85Z" transform="translate(-12.73 -7.28)"/><path class="4462fe22-7cb7-4933-a4a8-ceb4706ed092" d="M329.52,147.7q26.19-7.74,52.71-14,5.89-1.41,11.82-2.74c-2.16,4.16-8.95,16.32-21.29,24.33A74.63,74.63,0,0,1,352.15,164c-1.37.35-2.52.6-3.32.76l-10.09,1.68-5.16-.1c4.08-1.14,9.14-2.59,14.92-4.33,9.56-2.89,11.83-4,14.55-5.93,5.43-3.87,9-11.33,7.1-13.79-1.48-1.92-5.82-.17-15.66,1.9a183.37,183.37,0,0,1-19.69,3.05Z" transform="translate(-12.73 -7.28)"/><path class="9f5ccc3c-714f-43d8-a891-540eeface4f4" d="M181,320c8.84-1.27,36.31-7.05,64.9-15.38,27.82-8.1,31.56-9.84,45.51-12.34,13.29-2.38,26.63-2.89,39.94.43-4.95,0-9.92-.29-14.84.08-.75.05-1.4.09-2,.15-3.47.29-12.93,1.22-16.95,1.78-6.61.93-19.7,3.84-36.31,9.12,0,0-18,5.53-37.43,10.42a461.15,461.15,0,0,1-47.22,9.47c-4.73.68-8.69,1.17-11.49,1.5-9.58-.13-20.79-.43-20.81-1.19C144.21,323.14,160.23,323,181,320Z" transform="translate(-12.73 -7.28)"/><path class="4462fe22-7cb7-4933-a4a8-ceb4706ed092" d="M310.31,210.84a62.28,62.28,0,0,0,10.26,1.66c6.4.49,13.86,1.07,20.59-3,3.76-2.25,8-6.4,7.14-8.67-.68-1.71-4.05-1.74-9.91-1.86-4.74-.09-12-.27-21.27-.6l58.22-5.89a54,54,0,0,1-65,18.34Z" transform="translate(-12.73 -7.28)"/><path class="4462fe22-7cb7-4933-a4a8-ceb4706ed092" d="M92.34,198.76a99.81,99.81,0,0,1-22.29-.11c-5.39-.65-10.83-1.78-11.75.11-.62,1.29,1.13,3.43,3.08,5.82a18.92,18.92,0,0,0,6,5.16,21,21,0,0,0,6.77,2c4.75.79,7.86.59,14.5.51,2.35,0,5.84-.05,10.13,0l-6.44,1.67c-6,.68-11.07,1.19-14.68,1.55a28.41,28.41,0,0,1-4.81.12c-1.71-.11-2.82-.35-3-.35-4.56,0-13.6-5.19-20-9.8-.4-.28-4.87-3.8-13.83-10.84l-2.67-2.1q21.06,1.35,42,3.93Q83.84,197.52,92.34,198.76Z" transform="translate(-12.73 -7.28)"/><path class="4462fe22-7cb7-4933-a4a8-ceb4706ed092" d="M87.49,228.35l-19.11-6.56c6.26-3.47,31.63-8.59,39.16-7.38-1.22.52-2.42,1.13-3.68,1.55-9.44,3.16-15,4.95-15,4.95-1,.27-2.56.64-4.41,1a37.71,37.71,0,0,0,30.61,1.22c-6.18,4.15-12.41,7.9-20.28,6.91Z" transform="translate(-12.73 -7.28)"/><path class="c4aa8376-9bf5-4887-a78d-e777e555c91e" d="M212.56,117.37c3.52.74,7,1.46,10.56,2.23,11.61,2.55,20.08,9.32,26.74,19a27.65,27.65,0,0,0,9.09,7.83c1.26.73,2.45,1.44,4.91,2.73,1.35.71,6.83,3.56,16.39,7.67,1.92.83,3.49,1.48,4.47,1.89a35.83,35.83,0,0,1-8.78-.29c-8.8-1.4-14.85-5.82-19.67-9.43-5-3.79-8.46-7.87-12.8-12.05-3.31-3.18-6.52-6.49-10-9.51a25,25,0,0,0-6.64-4.32,48.46,48.46,0,0,0-9.66-2.65c-3-.55-6.18-.58-9.91-.89Z" transform="translate(-12.73 -7.28)"/><path class="9f5ccc3c-714f-43d8-a891-540eeface4f4" d="M125.92,305.93c3.65.38,16.08,1.41,25.89,1.73,9.07.3,16.3,0,46.11-2.8,7.5-.69,18.44-1.73,31.81-3.08a311.82,311.82,0,0,1-53.08,8.9,349.77,349.77,0,0,1-50.56-.11,210.83,210.83,0,0,1-26.26-3.46l-13.06-3c-1.07-1-1-1.7-.92-1.86.24-1.06,2.31-1.8,5.23-1.48,6.51,1.19,13,2.54,19.52,3.54C115.67,305.06,120.81,305.4,125.92,305.93Z" transform="translate(-12.73 -7.28)"/><path class="4462fe22-7cb7-4933-a4a8-ceb4706ed092" d="M342.15,222q-6.54,2.55-13.07,4.94c-10.67,3.92-14.62,5.07-17.76,3.11a8.24,8.24,0,0,1-3.11-3.82A29.21,29.21,0,0,0,319,226.1c4-.82,9.42-2.83,9.22-4.17-.22-1.55-7.79-.24-17.7-3.54a46.35,46.35,0,0,1-9.4-4.38,140.61,140.61,0,0,1,41,8Z" transform="translate(-12.73 -7.28)"/><path class="9f5ccc3c-714f-43d8-a891-540eeface4f4" d="M91.08,300.75a5.69,5.69,0,0,1-1.53,2.05,5.79,5.79,0,0,1-2.78,1.29c-6.38-1.51-21.28-5.44-33.86-12.9a65.75,65.75,0,0,1-10.3-7.33,65,65,0,0,1-10.46-11.61,113.31,113.31,0,0,0,58.93,28.5Z" transform="translate(-12.73 -7.28)"/><path class="c4aa8376-9bf5-4887-a78d-e777e555c91e" d="M130.64,108.35l-2.17-2.48a135.88,135.88,0,0,1,17.88.8,133.54,133.54,0,0,1,23,4.58c4.65,1.37,8.53,2.81,11.45,4l9.61,6c-2.34-.39-5.87-1.06-10.08-2.19-5.86-1.57-8.05-2.7-13.28-4.52a103.3,103.3,0,0,0-25.42-5.9A89.46,89.46,0,0,0,130.64,108.35Z" transform="translate(-12.73 -7.28)"/><path class="9f5ccc3c-714f-43d8-a891-540eeface4f4" d="M334.58,286.22l0-3.12" transform="translate(-12.73 -7.28)"/><path class="ae0a6aac-67bf-4404-b5fc-d2fc965d4fa9" d="M245,150.42c-8.21,1.53-14.24-2.21-20.18-6.1a2.36,2.36,0,0,1-.4-2.29c1.31-1.81,2.93-3.05,5.52-2.49C236.36,141,240.92,144.87,245,150.42Z" transform="translate(-12.73 -7.28)"/><path class="9f5ccc3c-714f-43d8-a891-540eeface4f4" d="M107.86,321.47l-8.08,1.88c-12.51-2.45-24.89-5.29-35.89-12.18a41.87,41.87,0,0,1-3.5-2.75L56.94,305a129,129,0,0,0,42.91,15.25Z" transform="translate(-12.73 -7.28)"/><path class="9f5ccc3c-714f-43d8-a891-540eeface4f4" d="M340.29,284.52a77.17,77.17,0,0,1,39.3,18.28l-7.14-2.86-5.53-2.47L361,294.7a101.15,101.15,0,0,0-13.22-5.08,95.66,95.66,0,0,0-11.61-2.79,91.83,91.83,0,0,0-15.55-1.36" transform="translate(-12.73 -7.28)"/><path class="b4a2a891-a240-4112-b82b-ba85fa3994e8" d="M214,232.87l-.32-2" transform="translate(-12.73 -7.28)"/><path class="9f5ccc3c-714f-43d8-a891-540eeface4f4" d="M147.19,323.32a64.3,64.3,0,0,1,15.13.46c2.36.36,4.27.8,5.48,1.1-2.32.31-5.49.7-9.28,1-1.66.15-9.46.81-20.05.77-6.78,0-13.15-.33-19-.82l-19.65-2.51a10.68,10.68,0,0,1,1.79-1,11.92,11.92,0,0,1,6.29-.85C133.13,324.26,147.19,323.32,147.19,323.32Z" transform="translate(-12.73 -7.28)"/><path class="ae0a6aac-67bf-4404-b5fc-d2fc965d4fa9" d="M158.39,226.73a6.49,6.49,0,0,1-.12-3c.89.34,2,.45,2.62,1.07,2.75,2.7,5.35,5.56,8,8.36C163.57,232.75,159.38,230.24,158.39,226.73Z" transform="translate(-12.73 -7.28)"/><path class="ae0a6aac-67bf-4404-b5fc-d2fc965d4fa9" d="M190.38,121.23l-9.61-6,2.24-.35,14.42,6.8Z" transform="translate(-12.73 -7.28)"/><line class="5ff0ac9d-eb13-48d2-a701-f2e1668ccd82" x1="190.72" y1="227.49" x2="190.69" y2="227.53"/><path class="176bd403-4b77-4bae-979d-cb473650d834" d="M213.72,230.9" transform="translate(-12.73 -7.28)"/><path class="4462fe22-7cb7-4933-a4a8-ceb4706ed092" d="M59.63,164.8l1,.34Z" transform="translate(-12.73 -7.28)"/><path class="4462fe22-7cb7-4933-a4a8-ceb4706ed092" d="M347.79,165.14l1-.35Z" transform="translate(-12.73 -7.28)"/><path class="9f5ccc3c-714f-43d8-a891-540eeface4f4" d="M223,314.55l.77-.28Z" transform="translate(-12.73 -7.28)"/><path class="4462fe22-7cb7-4933-a4a8-ceb4706ed092" d="M56.31,164l1.09.36Z" transform="translate(-12.73 -7.28)"/><path class="4462fe22-7cb7-4933-a4a8-ceb4706ed092" d="M351.06,164.39l1.09-.36Z" transform="translate(-12.73 -7.28)"/><path class="9f5ccc3c-714f-43d8-a891-540eeface4f4" d="M91.45,307.91" transform="translate(-12.73 -7.28)"/><path class="9f5ccc3c-714f-43d8-a891-540eeface4f4" d="M144.64,307.66" transform="translate(-12.73 -7.28)"/><path class="4462fe22-7cb7-4933-a4a8-ceb4706ed092" d="M328.78,173.71" transform="translate(-12.73 -7.28)"/><path class="ae0a6aac-67bf-4404-b5fc-d2fc965d4fa9" d="M236.52,47.56" transform="translate(-12.73 -7.28)"/><path class="ae0a6aac-67bf-4404-b5fc-d2fc965d4fa9" d="M183.81,35.92" transform="translate(-12.73 -7.28)"/><path class="ae0a6aac-67bf-4404-b5fc-d2fc965d4fa9" d="M225.86,87.53" transform="translate(-12.73 -7.28)"/><path class="ae0a6aac-67bf-4404-b5fc-d2fc965d4fa9" d="M238.38,113.55" transform="translate(-12.73 -7.28)"/><path class="ae0a6aac-67bf-4404-b5fc-d2fc965d4fa9" d="M317.88,243.45" transform="translate(-12.73 -7.28)"/><path class="31891ddb-5859-4251-ab29-49dcfb096e27" d="M32.63,242.92c.34-4,3.56-6.22,5.7-7.58,10.38-6.7,51-2.46,57.84-4.65h.11a.36.36,0,0,1,.34.41c-4.06,9.7-23.42,2.87-54.17,5.47a5.54,5.54,0,0,0-5.25,5.05c-.11,2.66,2.54,3.48,4.29,5.6v.21c.06.54-.56,4-3.55,3.75C35.34,250,31.79,247.29,32.63,242.92ZM64,237.86a3.17,3.17,0,0,1,0,1.37c-7.22,11.88-3.84,30.74,8.8,38.59,5.82,1.23,5.08-1.71,8.69-4.64.23.06.51.2.45.54v.21c-1.41,2.25-8.23,8.26-11.28,8.54C54.53,278.3,50,249,64,237.86Z" transform="translate(-12.73 -7.28)"/><path class="31891ddb-5859-4251-ab29-49dcfb096e27" d="M87.66,263.67c0-3.21-.86-8-4.2-8-.69,0-1.38.36-2.19.36h0a.52.52,0,0,1-.29-.36v-.07c0-3.06,7.48-5.84,9.27-5.84h.11c.52,0,1,0,1,1.07,1.61,9.19,1.09,26.48,1,36,0,2,1.61,1.57,1.61,2.64v.35a31.51,31.51,0,0,1-4.21,4.63h-.86c-.92,0-1.38-.29-1.38-1.57C87.55,282.89,87.66,273.77,87.66,263.67Zm5.3-7.83v-.72l3.74-4.27a2.76,2.76,0,0,1,2.54-1.07c2,0,3.63,3.14,3.63,5.41a6.61,6.61,0,0,1-2.71,4.85c-2.25-.72-2.13-6-4.43-6C94.63,254.06,94.17,255.84,93,255.84Z" transform="translate(-12.73 -7.28)"/><path class="31891ddb-5859-4251-ab29-49dcfb096e27" d="M115.62,252.94c1.95-.27,2.56-4.05,4.95-4.05,1.22,0,1.83,1.75,1.83,3.15,0,4-.33,9.64-.33,13.69,0,4.26.39,8.73,4.67,8.73a4,4,0,0,0,2.72-.84c-1.67,4.54-4,6.29-6.78,6.29-2.39,0-3.78-2-5.28-4.05-2.83,2.79-3.56,4.12-6.78,4.12-4.72,0-7.67-5.52-7.67-11C103,258.46,109.4,253.78,115.62,252.94Zm-.72,21.45a2.93,2.93,0,0,0,2.17-1.47V253.71c-1.17-.14-9.56,4.82-9.45,11.46C107.62,270.69,110.51,274.39,114.9,274.39Z" transform="translate(-12.73 -7.28)"/><path class="31891ddb-5859-4251-ab29-49dcfb096e27" d="M150.84,259.53c.11-1.63-.11-5.81-2.17-5.81-1.5,0-5.51,3.9-6.51,5.31,0,5.17-.39,11.19-.11,15v.28a3.74,3.74,0,0,0,1.44,3.12v.14c0,1.91-2.89,2.19-3.84,2.19-.72,0-2.39-.28-2.39-1.63,0-4.95.39-10.05.39-15.14,0-.5-.05-2.91-.05-3.4-1.17-3.47-3.4-5.38-6.46-5.38v-.14c1.5-1.84,9.79-3.26,10.85-3.54.11,0,.39,0,.39.28v4.67c0,.71.39.71.72.71,2.17,0,5.62-5.95,9.3-5.95,3.06,0,3.33,5.95,3.33,8.64,0,3-2.28,18,3.34,18C156.51,280.34,149.39,287.27,150.84,259.53Z" transform="translate(-12.73 -7.28)"/><path class="31891ddb-5859-4251-ab29-49dcfb096e27" d="M171.71,274.91c1.71,1.23,4.71-.15,4.87-2.89.16-2.46-2-5-3.75-5h-8c-3.32-.79-3.64-3.47-3.42-7.37.32-5.35,6.79-10.77,10.33-10.77,2.89,0,8.46,3.33,8.14,7.88-.11,1.88-1.4,2.46-2.52,3.54h-.43c-2.62,0-4.28-6.43-9.21-6.43a3.72,3.72,0,0,0-2.94,3,4.67,4.67,0,0,0,4.82,5.28c1.87,0,3.69-.72,5.51-.72,2.3,0,6.16,2.17,5.94,5.92-.37,5.71-6.47,12.87-10.92,12.87-3.64,0-6.58-5.21-7.92-6.72a30.73,30.73,0,0,0,2.89-2.82c.05-.08.11-.08.16-.15a1.16,1.16,0,0,1,.37-.14C167.75,270.43,169.41,274.19,171.71,274.91Z" transform="translate(-12.73 -7.28)"/><path class="31891ddb-5859-4251-ab29-49dcfb096e27" d="M183.2,265.75c0-7.36,5.91-17.19,13.77-17.19,2,0,5.8,3.11,5.8,9.83,3.16.36,7.69-1.06,7.63-.77-.57,2.75-8.09,6.29-20.89,6.29-.63,0-1.09,0-1.09.78,0,5.73,5.68,11,11,11,1.32,0,3.28-.29,3.28-2.05s-1.61-2.55-1.61-4.11c0-2,1.95-3,3.73-3s2.47,2.48,2.47,4.24c0,5.66-6.95,9.56-11.65,9.56C188,280.26,183.2,272.61,183.2,265.75Zm5.68-5.38a39.63,39.63,0,0,0,9-1.2c.63-2.26-1.83-6.51-4.76-6-3.27.56-4.94,3.61-4.94,6.44C188.19,260.09,188.36,260.37,188.88,260.37Z" transform="translate(-12.73 -7.28)"/><path class="31891ddb-5859-4251-ab29-49dcfb096e27" d="M262.91,252.68c1.85-.28,2.42-4.12,4.69-4.12,1.16,0,1.74,1.78,1.74,3.2,0,4.12-.32,9.81-.32,13.93,0,4.34.37,8.88,4.43,8.88a3.62,3.62,0,0,0,2.58-.85c-1.58,4.62-3.79,6.4-6.43,6.4-2.26,0-3.58-2-5-4.12-2.69,2.84-3.37,4.19-6.43,4.19-4.48,0-7.27-5.62-7.27-11.16C250.9,258.3,257,253.54,262.91,252.68Zm-.68,21.82a2.78,2.78,0,0,0,2-1.49V253.46c-1.11-.14-9.06,4.91-8.95,11.66C255.33,270.74,258.07,274.5,262.23,274.5Z" transform="translate(-12.73 -7.28)"/><path class="31891ddb-5859-4251-ab29-49dcfb096e27" d="M277,250c5.1,2.15,24.31-2,26.24.86.9,1.29-3.86,3.8-11.22,3.73-2.61.43-3.23,5.72-3.23,8.8,0,5.37,1.3,12.32,6.12,12.32,2.09,0,3.17-.93,3.17-3.65,0-2.15-1-3.94-1.81-5.8,0-.07-.06-.29-.06-.36,0-1.86,1.93-2.65,3-2.65,2.5,0,2.72,3.58,2.72,5.87,0,5.51-4.87,11.1-9.18,11.1-10.2,0-10-17.11-6.63-25.13C283.22,255.13,276.87,255.27,277,250Z" transform="translate(-12.73 -7.28)"/><path class="31891ddb-5859-4251-ab29-49dcfb096e27" d="M303.75,256.61c-.12,0-.41-.41-.35-.41,2.29-1.5,6.71-4.38,9.06-4.38.3,0,.71-.06.83.35v1.57c0,6.7-4,22.15,5.83,22.15,1.77,0,2.94-.75,2.94-2.53,0-3.83-.23-8.82-.35-12.37-.18-4.79-6.89-2.12-6.89-4.24s10.42-5.47,11.78-5.2a1.27,1.27,0,0,1,.65.62c0,.27.05,1.64.05,1.84,0,5.88-.35,13.74-.35,19.83,0,2.05,1.83,2.46,3.53,2.66-.29,6.7-8.59,1.37-8.24,1.37-.82,0-4.95,2.39-6.95,2.39C298.8,280.26,316.88,259.34,303.75,256.61Z" transform="translate(-12.73 -7.28)"/><path class="31891ddb-5859-4251-ab29-49dcfb096e27" d="M337,264.16c0-3.26-.83-8.12-4.05-8.12-.66,0-1.33.36-2.1.36h-.06a.57.57,0,0,1-.28-.36V256c0-3.12,7.21-5.94,8.93-5.94h.11c.5,0,1,0,1,1.08,1.55,9.36,1.05,27,1,36.64,0,2,1.55,1.59,1.55,2.68v.36A31.08,31.08,0,0,1,339,295.5h-.83c-.89,0-1.33-.29-1.33-1.6C336.86,283.75,337,274.46,337,264.16Zm5.1-8v-.72l3.6-4.36a2.58,2.58,0,0,1,2.44-1.08c1.89,0,3.5,3.19,3.5,5.51a6.81,6.81,0,0,1-2.61,4.93c-2.16-.72-2.05-6.09-4.27-6.09C343.68,254.37,343.23,256.18,342.07,256.18Z" transform="translate(-12.73 -7.28)"/><path class="31891ddb-5859-4251-ab29-49dcfb096e27" d="M352.84,265.65c0-7,5.79-16.41,13.49-16.41,1.91,0,5.68,3,5.68,9.38,3.09.34,7.53-1,7.47-.74-.56,2.63-7.92,6-20.45,6-.62,0-1.07,0-1.07.74,0,5.47,5.56,10.47,10.73,10.47,1.29,0,3.2-.27,3.2-2s-1.57-2.43-1.57-3.91c0-1.89,1.91-2.91,3.65-2.91s2.42,2.37,2.42,4.05c0,5.41-6.8,9.12-11.41,9.12C357.51,279.49,352.84,272.2,352.84,265.65Zm5.57-5.14a40.26,40.26,0,0,0,8.82-1.14c.62-2.17-1.8-6.22-4.66-5.74a6,6,0,0,0-4.84,6.14C357.73,260.24,357.9,260.51,358.41,260.51Z" transform="translate(-12.73 -7.28)"/><path class="1c649ee0-6639-4ac9-a188-38ed5f4b8c86" d="M217.19,232.72c1.94.86,2.27,4,2.38,4.94.29,2.44,2,7.37,5.53,17.21,0,0,4.71,13.29,12,17,.66.33,2.48,1.24,3.71.49a2.38,2.38,0,0,0,1-1.4c1.41-4.91.74-19.93.74-19.93-.39-8.63,1.16-17.51-.74-18.11a3.27,3.27,0,0,0-1.32-.09,3.65,3.65,0,0,0-2.22,1.4c-.35.47-.25.56-.58,1.07a3.82,3.82,0,0,1-2.39,1.9,2.83,2.83,0,0,1-3-1.48,3.25,3.25,0,0,1,.49-2.72,7.78,7.78,0,0,1,3.38-3.21c2.14-1.12,6.06-2.15,8.64-.25A6.88,6.88,0,0,1,247,232.8a10.89,10.89,0,0,1,.65,4c.06,2.55.37,5.1.25,7.66-.32,6.89-.12,16.82-.08,18.61.18,9.14.92,13.67-2,15.56a5.29,5.29,0,0,1-1.73.66c-6.8,1.74-14-5.82-15.48-7.33-8.36-8.75-9.37-19.47-10.54-19.19-.56.14.1,2.52.08,9.06,0,4.88-.39,8.66,1.4,9.55.91.45,1.93,0,2.31.58.08.13.37.7-1.15,2.64-1.38,1.74-2.63,3.64-4.78,4.11a2,2,0,0,1-1.48-.08,2.91,2.91,0,0,1-1.07-2.39c-.32-3.65-.14-25.12-.42-30.06a15.9,15.9,0,0,0-1.81-5.92c-.88-1.68-1.45-2-1.89-2.15-1.21-.35-2.19.67-3.62.09-.29-.12-.83-.34-.91-.74-.16-.82,1.67-1.79,3-2.47a19.12,19.12,0,0,1,7-2.23A5.67,5.67,0,0,1,217.19,232.72Z" transform="translate(-12.73 -7.28)"/><text class="0d67a1f0-1b6c-4152-84d9-2faf40e697a2" transform="translate(331.91 300.53)">IN<tspan class="b58a5731-4f79-4af6-83e0-189fcb4124e7" x="10.99" y="0">C</tspan><tspan x="16.86" y="0">.</tspan></text></svg>